<svg xmlns="http://www.w3.org/2000/svg" viewBox="0 0 2610 560"><text transform="translate(574.22 424.58)" style="font-family:ProximaNova-Bold,&quot;Proxima Nova&quot;;font-size:471.48px;font-weight:700;fill:#9c9c9c"><tspan x="0" y="0">FFbuilder</tspan></text><path d="M408.17 259.01c4.09 20.64 14.39 71.57 43.33 64.03 5.25-1.37 72.47-67.29 78.03-75.38 22.7-33.01-49.79-43.52-60.11-53.26-9.43-8.9-10.53-32.04-19.81-46.53-9.56-14.92-67.89-69.79-84.15-81.7C343.13 49.82 214.47-10.8 197.3 1.68c-7.08 4.77-9.38 16.35-5.68 22.79 5.64 9.82 86.15 44.35 96.06 80.18 7.15 25.82-35.97 39.08-17.73 70.09 3.17 5.38 75.07 77.07 80.21 79.39 20.91 9.44 39.75-9.27 58 4.87Zm-154.34-67.82L1.41 443.34c-10.65 21.49 41.97 75.28 66.35 73.11l246-239.28c10.8-23.37-44.17-68.34-59.93-85.99Z" style="fill:#fdfefd"/><path d="M408.17 259.01c-18.25-14.15-37.09 4.56-58-4.87-5.14-2.32-77.04-74.01-80.21-79.39-18.24-31.01 24.88-44.27 17.73-70.09-9.92-35.83-90.42-70.36-96.06-80.18-3.7-6.44-1.4-18.02 5.68-22.79 17.17-12.48 145.83 48.14 168.16 64.5 16.26 11.91 74.59 66.77 84.15 81.7 9.28 14.49 10.38 37.63 19.81 46.53 10.33 9.75 82.82 20.25 60.11 53.26-5.56 8.09-72.78 74.01-78.03 75.38-28.94 7.54-39.25-43.39-43.33-64.03Zm-154.34-67.82c15.76 17.65 70.73 62.62 59.93 85.99l-246 239.28c-24.38 2.17-77-51.63-66.35-73.11L253.83 191.2Z" style="fill:#43c059"/><path d="M253.83 191.19c15.76 17.65 70.73 62.62 59.93 85.99l-246 239.28c-24.38 2.17-77-51.63-66.35-73.11L253.83 191.2Zm154.34 67.82c-18.25-14.15-37.09 4.56-58-4.87-5.14-2.32-77.04-74.01-80.21-79.39-18.24-31.01 24.88-44.27 17.73-70.09-9.92-35.83-90.42-70.36-96.06-80.18-3.7-6.44-1.4-18.02 5.68-22.79 17.17-12.48 145.83 48.14 168.16 64.5 16.26 11.91 74.59 66.77 84.15 81.7 9.28 14.49 10.38 37.63 19.81 46.53 10.33 9.75 82.82 20.25 60.11 53.26-5.56 8.09-72.78 74.01-78.03 75.38-28.94 7.54-39.25-43.39-43.33-64.03Z" style="fill:#43c059"/></svg>